<?xml version="1.0" encoding="utf-8"?>
<!-- Generator: Adobe Illustrator 21.1.0, SVG Export Plug-In . SVG Version: 6.00 Build 0)  -->
<svg version="1.1" id="Layer_1" xmlns="http://www.w3.org/2000/svg" xmlns:xlink="http://www.w3.org/1999/xlink" x="0px" y="0px"
	 viewBox="0 0 186 33.9" style="enable-background:new 0 0 186 33.9;" xml:space="preserve">
<style type="text/css">
	.st0{fill:#74529E;}
</style>
<g id="Group_649" transform="translate(-48 -15.934)">
	<path id="Path_3811" class="st0" d="M177.3,49.5h6.2c4.1,0.1,8.1-1.4,11.1-4.2c2.2-2.2,3.4-5.3,3.4-8.4c0.1-2.3-0.8-4.5-2.4-6.2
		c-2-2-5.1-2.9-8.4-2.9h-4.2c-0.4,0-0.8,0.4-0.9,0.8l-5.4,20.1C176.5,49.1,176.8,49.4,177.3,49.5C177.2,49.5,177.3,49.5,177.3,49.5z
		 M183.4,29.3h3.6c3,0,5.6,0.8,7.2,2.5c1.4,1.4,2.1,3.3,2,5.3c0.1,2.7-1,5.3-2.9,7.3c-2.6,2.5-6,3.8-9.6,3.7h-5.3L183.4,29.3z"/>
	<path id="Path_3812" class="st0" d="M201.2,49.5h14.1c0.4,0,0.7-0.4,0.7-0.8c0-0.4-0.3-0.7-0.7-0.7h-13l2.3-8.7h11.9
		c0.4,0,0.7-0.4,0.7-0.8c0-0.4-0.3-0.7-0.7-0.7H205l2.3-8.5h13.3c0.4,0,0.7-0.4,0.7-0.8c0-0.4-0.3-0.7-0.7-0.7h-13.8
		c-0.4,0-0.8,0.4-0.9,0.8l-5.4,20.1c-0.1,0.4,0.2,0.7,0.5,0.8C201.1,49.5,201.1,49.5,201.2,49.5z"/>
	<path id="Path_3813" class="st0" d="M220.1,32.9v0.6c0,0.4,0.3,0.8,0.8,0.8c0.4,0,0.8-0.3,0.8-0.8c0,0,0,0,0,0v-0.6
		c0-0.4-0.3-0.8-0.8-0.8c0,0,0,0,0,0C220.5,32.1,220.1,32.4,220.1,32.9C220.1,32.9,220.1,32.9,220.1,32.9z"/>
	<path id="Path_3814" class="st0" d="M166.3,42.6c4.4,0,8-4,8-8.4c0.1-3.2-2.4-5.9-5.6-5.9c-0.1,0-0.2,0-0.3,0c-4.4,0-8,4-8,8.4
		c-0.1,3.2,2.4,5.9,5.6,5.9C166.1,42.6,166.2,42.6,166.3,42.6z M168.2,29.6c2.5-0.1,4.6,1.9,4.6,4.4c0,0.1,0,0.2,0,0.3
		c0,3.6-2.8,7-6.5,7c-2.5,0.1-4.6-1.9-4.6-4.4c0-0.1,0-0.2,0-0.3C161.7,33,164.6,29.6,168.2,29.6z"/>
	<path id="Path_3815" class="st0" d="M165.5,47.2c-0.6,0-1.1,0.5-1.1,1.1c0,0.6,0.5,1.1,1.1,1.1c0.6,0,1.1-0.5,1.1-1.1
		C166.7,47.7,166.2,47.2,165.5,47.2C165.6,47.2,165.5,47.2,165.5,47.2z"/>
	<path id="Path_3816" class="st0" d="M107.5,44.8c-2,1.9-4.3,3.5-6.8,4.8c-0.1,0.1-0.3,0.1-0.4,0.2h13.4c-0.1,0-0.3,0-0.3-0.1
		C110.9,48.7,108.9,47,107.5,44.8z"/>
	<path id="Path_3817" class="st0" d="M84.7,21.3c0.5-0.7,0.6-1.2,1-1.8c0.5-0.6,0.9-1.4,0.9-2.3c0-0.7-1.6-1.4-2.1-1.4
		c-0.4,0-0.8,0.1-1,0.5c-2.8,3.5-4.6,7.4-7.2,11.1h4.2C81.9,25.5,83.5,23.4,84.7,21.3z"/>
	<path id="Path_3818" class="st0" d="M219.6,46c-0.1,0.1-0.2,0.2-0.2,0.3c0,0.2,0.1,0.3,0.3,0.3c0,0,0,0,0,0
		c0.5-0.1,0.9-0.4,1.2-0.7c0.5-0.7,0.8-1.6,0.6-2.5v-0.6c0-0.4-0.3-0.8-0.8-0.8c-0.4,0-0.8,0.3-0.8,0.8c0,0,0,0,0,0v0.5
		c0,0.4,0.2,0.7,0.6,0.8C220.8,45.1,220.4,45.6,219.6,46z"/>
	<path id="Path_3819" class="st0" d="M223,29.1h3.3c0.2,0,1.9,0.1,1.9,3.2c0,2.7,0.2,5.2,2.3,6.4c-2,1.2-2.3,3.7-2.3,6.4
		c0,3-1.7,3.2-1.9,3.2h-8.4c-0.4,0-0.6,0.3-0.6,0.7c0,0.3,0.3,0.6,0.6,0.6h8.4c0,0,3.1-0.1,3.1-4.5c0-4,0.5-5.7,3.8-5.7
		c0.3,0,0.6-0.3,0.6-0.6c0-0.2-0.1-0.3-0.2-0.4c-0.1-0.1-0.3-0.2-0.4-0.2c-3.3,0-3.8-1.8-3.8-5.7c0-4.4-3.1-4.5-3.1-4.5H223
		c-0.4,0-0.6,0.3-0.6,0.6C222.4,28.7,222.6,29.1,223,29.1C223,29.1,223,29.1,223,29.1z"/>
	<path id="Path_3820" class="st0" d="M50.8,39.9c0.2,0.3,0.4,0.6,0.5,1c0.1,0.5,0.2,0.9,0.1,1.4v3.8c0,0.4,0,0.8,0.1,1.2
		c0.1,0.3,0.2,0.7,0.4,1c0.2,0.3,0.5,0.6,0.8,0.8c0.2,0.2,0.4,0.3,0.7,0.4c0.2,0.1,0.5,0.2,0.7,0.2c0.2,0.1,0.5,0.1,0.7,0.1
		c0.1,0,0.3,0,0.4,0h24.1c-0.6,0-1-0.6-1.3-1c-0.5-0.5-0.7-1.2-0.8-1.9c0-1.7,1.8-3.2,2.3-5.1c1.2-3.7,2.2-7.4,2.9-11.2
		c0-0.4,0.1-0.7,0.1-0.8c0-0.3-0.3-0.7-0.4-1.1c0-0.4,0.7-1.1,1.7-1.1c0.5,0,1,0.2,1.4,0.5c0.4,0.8,0.7,1.8,0.6,2.7
		c0,0.6-0.1,1.1-0.2,1.7c-0.1,0.3-0.1,0.5-0.2,0.8c0,0.1,0,0.2,0.1,0.2c0,0,0.2,0,0.5-0.4c1.8-1.7,3.8-3,6-4
		c0.2-0.1,0.4-0.1,0.5-0.1c1.2-0.1,2.4,0.4,3.1,1.4c0.2,0.2,0.3,0.5,0.3,0.8c0.1,1-0.6,1.9-1.5,2.2c-0.6,0-1.3-0.5-1.9-0.5
		c-0.2,0-0.5,0.1-0.7,0.2C86.5,35.8,82.5,41,81.3,47c-0.1,0.9-0.5,1.7-1.1,2.3c-0.2,0.2-0.4,0.4-0.7,0.4h18.2c-0.1,0-0.1,0-0.2-0.1
		c-0.9-0.3-2.5-1-2.8-1.2c-1-0.7-1.8-1.7-2.2-2.9c-0.3-1.1-0.5-2.2-0.5-3.3c0-0.5,0.1-1,0.2-1.4c1.2-4.3,4.1-8.1,7.4-11.5
		c1.2-1.2,2.9-1.9,4.6-1.9c0.9,0,1.8,0.1,2.6,0.5c0.5,0.1,1.4,0.9,1.4,2.7c-0.1,1.1-0.4,2.1-1,3c-0.4,0.7-0.8,1.4-1.4,2
		c-2.9,3.3-6.3,7-10,9c-0.1,0.2-0.2,0.3-0.2,0.4c0.1,0.7,0.4,1.4,1,1.8c0.4,0.2,0.9,0.3,1.3,0.3c0.7,0,1.4-0.1,3.3-1.2
		c2.9-1.6,4.8-3.9,7.4-5.5c0.3-0.2,0.6-0.3,0.9-0.3c0.2,0,0.9,0.4,0.9,0.8c0,0.2,0,0.4,0,0.5c0,0.2,0,0.4-0.2,0.6
		c-0.1,0.1-0.2,0.1-0.3,0.2l0,0c1,1.3,1.5,2.9,2.8,4.1c0.4,0.4,0.6,0.4,0.9,0.4c0.2,0,0.4-0.1,0.4-0.3c0-0.4-0.1-0.9-0.2-1.3
		c-0.6-2.8-1.4-9.1-1.4-10c0.1-1.8,0.7-3.6,1.6-5.2c0.8-1.4,2.1-2.3,3.7-2.7l-37,0.1c-1.2,1.7-2.2,3.6-3,5.6L77,34.8
		c-2.6,6.9-3.3,9.9-3.3,11.4c0,0.8,0.1,1.6,0.3,2.3c0,0.1,0,0.1-0.1,0.3c-0.6,0.6-0.5,0.9-1.6,0.9c-0.4,0-1.5-0.5-1.6-0.8
		c-0.2-0.9-0.3-1.8-0.2-2.7c0.1-2.1,0.4-4.1,1.1-6.1c0.4-1,0.8-2,1.3-2.9c0,0,0-0.1-0.1-0.1s-0.2,0.1-0.4,0.4
		c-3.4,3.8-6.8,7.9-11,10.3c-0.4,0.2-0.8,0.3-1.3,0.3c-1.1-0.2-2.2-0.6-3-1.3c-0.5-0.7-0.7-1.5-0.7-2.4c0.1-1.6,0.7-3.1,1.5-4.4
		c2.1-3.8,5.2-7,8.9-9.2c1-0.5,2-0.8,3.1-0.8c0.4,0,0.8,0.1,1.2,0.2c0.7,0.2,1.4,0.5,2,0.8c0.2,0,0.3,0,0.3,0c1-1.1,2-2.2,2.8-3.4
		l-21,0l0,0c-0.1,0-0.3,0-0.4,0c-0.2,0-0.5,0-0.7,0.1c-0.2,0-0.5,0.1-0.7,0.2c-0.3,0.1-0.5,0.2-0.7,0.4c-0.3,0.2-0.6,0.5-0.8,0.8
		c-0.2,0.3-0.3,0.6-0.4,1c-0.1,0.4-0.2,0.8-0.1,1.2v3.8c0,0.5,0,0.9-0.1,1.4c-0.1,0.4-0.3,0.7-0.5,1c-0.3,0.3-0.6,0.5-1,0.7
		c-0.6,0.2-1.1,0.4-1.7,0.5v0.1c0.6,0.1,1.2,0.3,1.7,0.5C50.1,39.4,50.4,39.6,50.8,39.9z"/>
	<path id="Path_3821" class="st0" d="M95.9,41c0.1,0,0.2-0.1,0.3-0.1c2.4-1.9,4.6-4.1,6.6-6.5c0.4-0.5,0.7-1.1,1-1.7
		c0.5-0.6,0.7-1.2,0.8-2c0-0.3,0-0.5-0.2-0.5c-0.3,0-0.6,0.2-0.9,0.4c-0.5,0.3-0.4,0.1-0.9,0.5c-2.8,2.5-5.8,5.9-6.8,9.7
		C95.8,40.9,95.9,41,95.9,41z"/>
	<path id="Path_3822" class="st0" d="M70.7,32.5c-0.4,0-0.7,0.1-1.1,0.2c-4.5,2.3-8.1,6.2-10,10.9c-0.1,0.2-0.1,0.4-0.1,0.5
		c0,0.4,0.1,0.9,0.3,0.9c0.2,0,0.3-0.1,0.4-0.1c0.2-0.2,0.5-0.2,0.9-0.5c3.7-2.9,6.9-6.3,9.7-10.1c0.5-0.6,0.9-0.8,0.9-1.5
		C71.7,32.6,71.4,32.5,70.7,32.5z"/>
	<path id="Path_3823" class="st0" d="M117.8,27.4L117.8,27.4z"/>
	<path id="Path_3824" class="st0" d="M122,28.9c0.6,0.8,0.9,1.8,0.8,2.8c0,1.3-0.4,2.5-1.2,3.5c-0.3,0.4-0.4,0.4-0.6,0.4
		c-0.5,0-1.1-0.2-1.5-0.5c-0.4-0.3-0.7-0.8-0.6-1.4c0-0.1,0.1-0.2,0.1-0.3c0.4-0.6,0.7-1.3,0.7-2c0-0.4-0.1-0.8-0.3-1.1
		c-0.2-0.3-0.5-0.6-0.9-0.6c-1.3,1.2-2.2,2.7-2.6,4.4c-0.1,0.4-0.1,0.7-0.1,1.1c0,0.2,0.2,2.2,0.3,2.7c0.4,3.2,1.4,7.9,1.4,9.7
		c0,0.3-0.1,0.6-0.3,0.8c-0.6,0.7-1.3,1.2-2.1,1.5h11.4c-0.1,0-0.3,0-0.4-0.1c-2.7-1.2-4.9-3.1-6.3-5.6c-0.1-0.2-0.2-0.4-0.2-0.6
		c0.1-0.8,0.7-1.5,1.6-1.6c0.9,0,1.2,0.1,1.6,0.6c1,1.3,1.5,2.9,2.8,4.1c0.4,0.4,0.6,0.4,0.9,0.4c0.2,0,0.4-0.1,0.4-0.3
		c0-0.4-0.1-0.9-0.2-1.3c-0.6-2.8-1.4-9.1-1.4-10c0.1-1.8,0.6-3.6,1.6-5.2c0.8-1.4,2.2-2.4,3.8-2.7c2.4,0,3.3,0.6,4.2,1.5
		c0.6,0.8,0.9,1.8,0.8,2.8c0,1.3-0.4,2.5-1.2,3.5c-0.3,0.4-0.4,0.4-0.6,0.4c-0.5,0-1.1-0.2-1.5-0.5c-0.4-0.3-0.7-0.8-0.6-1.4
		c0-0.1,0.1-0.2,0.1-0.3c0.4-0.6,0.7-1.3,0.7-2c0-0.4-0.1-0.8-0.3-1.1c-0.2-0.3-0.5-0.5-0.9-0.6c-1.3,1.2-2.2,2.7-2.6,4.4
		c-0.1,0.4-0.1,0.7-0.1,1.1c0,0.2,0.2,2.2,0.3,2.7c0.4,3.2,1.4,7.9,1.4,9.6c0,0.3-0.1,0.6-0.3,0.7c-0.6,0.7-1.3,1.2-2.2,1.4h15.4
		c0.2,0,0.4,0,0.6,0h1.3c2.8-0.1,5.5-1.2,7.4-3.2c0.2-0.2,0.3-0.4,0.3-0.6c0-0.4-0.3-0.7-0.7-0.7h0c-0.2,0-0.4,0.1-0.6,0.3
		c-1.7,1.7-3.9,2.7-6.3,2.8h-1c-3.8,0-7-3.1-7-6.9c0-0.2,0-0.3,0-0.5c0-5.9,4.5-11.6,10.4-12.1l0,0c0.1,0,0.2,0,0.3,0h0.4
		c2.6-0.2,5.1,1.2,6.3,3.5c0.1,0.2,0.4,0.3,0.6,0.3h0.1c0.4,0,0.6-0.3,0.7-0.7c0-0.2-0.1-0.5-0.2-0.7c-1.6-2.5-4.5-4-7.5-3.9h-0.7v0
		l-29.5,0C119.8,27.4,121,28,122,28.9z"/>
</g>
</svg>
