<svg xmlns="http://www.w3.org/2000/svg" viewBox="0 0 186 33.891">
  <defs>
    <style>
      .cls-1 {
        fill: #fff;
      }
    </style>
  </defs>
  <g id="Group_649" data-name="Group 649" transform="translate(-48 -15.934)">
    <path id="Path_3811" data-name="Path 3811" class="cls-1" d="M262.432,45.86h6.189a15.573,15.573,0,0,0,11.051-4.175,11.717,11.717,0,0,0,3.389-8.4,8.357,8.357,0,0,0-2.407-6.189c-1.965-1.965-5.059-2.9-8.448-2.9h-4.175a1.1,1.1,0,0,0-.933.786l-5.4,20.088A.736.736,0,0,0,262.432,45.86Zm6.139-20.186h3.585c3.045,0,5.6.835,7.22,2.456a7.108,7.108,0,0,1,2.014,5.3,10.039,10.039,0,0,1-2.9,7.269,13.222,13.222,0,0,1-9.627,3.733h-5.3Z" transform="translate(-85.161 3.62)"/>
    <path id="Path_3812" data-name="Path 3812" class="cls-1" d="M311.17,45.86h14.1a.737.737,0,0,0,0-1.473H312.251l2.308-8.693h11.886a.737.737,0,0,0,0-1.473H315l2.308-8.546h13.261a.737.737,0,0,0,0-1.473H316.818a1.1,1.1,0,0,0-.933.786l-5.4,20.088A.652.652,0,0,0,311.17,45.86Z" transform="translate(-109.979 3.62)"/>
    <path id="Path_3813" data-name="Path 3813" class="cls-1" d="M350.4,33.786v.639a.786.786,0,1,0,1.572,0v-.639a.776.776,0,0,0-.786-.786A.747.747,0,0,0,350.4,33.786Z" transform="translate(-130.3 -0.858)"/>
    <path id="Path_3814" data-name="Path 3814" class="cls-1" d="M234.643,39.493c4.371,0,7.957-4.027,7.957-8.35a5.782,5.782,0,0,0-5.943-5.943c-4.371,0-7.957,4.027-7.957,8.35A5.782,5.782,0,0,0,234.643,39.493Zm1.915-13.016a4.516,4.516,0,0,1,4.617,4.715c0,3.585-2.8,7.024-6.483,7.024a4.516,4.516,0,0,1-4.617-4.715C230.075,29.915,232.924,26.477,236.558,26.477Z" transform="translate(-68.373 3.111)"/>
    <path id="Path_3815" data-name="Path 3815" class="cls-1" d="M238.13,63.6a1.13,1.13,0,1,0,1.13,1.13A1.111,1.111,0,0,0,238.13,63.6Z" transform="translate(-72.596 -16.429)"/>
    <path id="Path_3816" data-name="Path 3816" class="cls-1" d="M113.62,58.8a29.37,29.37,0,0,1-6.827,4.764,2.9,2.9,0,0,1-.393.2h13.359c-.147-.049-.295-.049-.344-.1A12.325,12.325,0,0,1,113.62,58.8Z" transform="translate(-6.141 -13.986)"/>
    <path id="Path_3817" data-name="Path 3817" class="cls-1" d="M66.048,5.4c.491-.688.589-1.228.982-1.768a3.627,3.627,0,0,0,.884-2.259C67.914.688,66.343,0,65.8,0a.993.993,0,0,0-.982.491c-2.8,3.536-4.568,7.416-7.22,11.1h4.224C63.248,9.528,64.771,7.416,66.048,5.4Z" transform="translate(18.69 15.934)"/>
    <path id="Path_3818" data-name="Path 3818" class="cls-1" d="M349.2,57.229a.4.4,0,0,0-.2.295.334.334,0,0,0,.344.344,3.137,3.137,0,0,0,1.228-.737,3.275,3.275,0,0,0,.638-2.456v-.589a.786.786,0,1,0-1.572,0v.491a.813.813,0,0,0,.638.835C350.375,56.247,350.031,56.738,349.2,57.229Z" transform="translate(-129.587 -11.187)"/>
    <path id="Path_3819" data-name="Path 3819" class="cls-1" d="M350.447,25.375h3.291c.2,0,1.866.147,1.866,3.192,0,2.652.2,5.206,2.259,6.385-2.014,1.179-2.259,3.733-2.259,6.385,0,3.045-1.719,3.193-1.866,3.193h-8.4a.639.639,0,0,0,0,1.277h8.448c.049,0,3.143-.1,3.143-4.519,0-3.978.54-5.747,3.831-5.747a.65.65,0,0,0,.638-.638.623.623,0,0,0-.2-.442.731.731,0,0,0-.442-.2c-3.291,0-3.831-1.768-3.831-5.747,0-4.42-3.143-4.519-3.143-4.519h-3.34a.65.65,0,0,0-.638.639A.677.677,0,0,0,350.447,25.375Z" transform="translate(-127.399 3.722)"/>
    <path id="Path_3820" data-name="Path 3820" class="cls-1" d="M2.75,35.774a2.067,2.067,0,0,1,.491.982,5.616,5.616,0,0,1,.147,1.375v3.831a4.3,4.3,0,0,0,.147,1.179,3.545,3.545,0,0,0,.442.982,3.365,3.365,0,0,0,.835.835,3.131,3.131,0,0,0,.688.393,4.092,4.092,0,0,0,.737.2,3.317,3.317,0,0,0,.688.1,1.36,1.36,0,0,1,.442.049H31.434c-.639-.049-.982-.638-1.277-1.031a3.567,3.567,0,0,1-.835-1.866c0-1.67,1.817-3.242,2.308-5.108a101.951,101.951,0,0,0,2.947-11.247c.049-.442.1-.688.1-.786,0-.295-.344-.688-.393-1.13,0-.393.688-1.081,1.67-1.081a2.027,2.027,0,0,1,1.424.54,5.353,5.353,0,0,1,.639,2.7,6.87,6.87,0,0,1-.246,1.67,7.121,7.121,0,0,0-.2.786c0,.147,0,.2.147.2.049,0,.2-.049.54-.393a21.394,21.394,0,0,1,5.992-3.978,2.089,2.089,0,0,1,.54-.1,3.783,3.783,0,0,1,3.143,1.375,1.239,1.239,0,0,1,.295.835,2.089,2.089,0,0,1-1.523,2.161c-.639,0-1.326-.491-1.916-.491a1.3,1.3,0,0,0-.688.2A20.254,20.254,0,0,0,33.251,42.9,3.664,3.664,0,0,1,32.171,45.2a1.2,1.2,0,0,1-.737.442H49.656c-.1-.049-.147-.049-.246-.1-.933-.344-2.456-1.031-2.75-1.179A5.232,5.232,0,0,1,44.5,41.422a12.8,12.8,0,0,1-.54-3.291,6.037,6.037,0,0,1,.2-1.424c1.228-4.322,4.126-8.055,7.416-11.493A6.751,6.751,0,0,1,56.188,23.3a5.866,5.866,0,0,1,2.6.491c.491.147,1.375.933,1.375,2.652a6.95,6.95,0,0,1-.982,3.045A9.716,9.716,0,0,1,57.809,31.5c-2.947,3.291-6.336,7.023-9.97,8.988-.147.2-.2.295-.2.393a2.475,2.475,0,0,0,1.031,1.768A2.808,2.808,0,0,0,50,42.994c.737,0,1.375-.147,3.34-1.179,2.947-1.572,4.764-3.88,7.367-5.5a1.455,1.455,0,0,1,.884-.295c.246,0,.884.442.884.835a3.079,3.079,0,0,1-.049.54.722.722,0,0,1-.2.589c-.1.1-.2.147-.295.246h0c.982,1.326,1.523,2.947,2.8,4.077.442.393.639.442.884.442a.4.4,0,0,0,.442-.344,7.472,7.472,0,0,0-.2-1.326c-.589-2.8-1.375-9.135-1.375-10.02A11.517,11.517,0,0,1,66.06,25.9a5.742,5.742,0,0,1,3.684-2.7l-37.033.1a30.955,30.955,0,0,0-3,5.55l-.688,1.817c-2.6,6.925-3.291,9.921-3.291,11.444a9.031,9.031,0,0,0,.344,2.308c0,.147-.049.147-.147.295-.589.589-.491.884-1.572.884-.393,0-1.523-.54-1.572-.786a12.858,12.858,0,0,1-.246-2.7,20.486,20.486,0,0,1,1.13-6.09A21.518,21.518,0,0,1,25,33.072c0-.049,0-.1-.1-.1s-.2.1-.442.393c-3.438,3.831-6.827,7.858-11,10.314a2.658,2.658,0,0,1-1.277.295A6.529,6.529,0,0,1,9.135,42.7,4.293,4.293,0,0,1,8.4,40.341a9.783,9.783,0,0,1,1.523-4.42,25.406,25.406,0,0,1,8.89-9.234,6.813,6.813,0,0,1,3.094-.786,4.282,4.282,0,0,1,1.228.2,14.262,14.262,0,0,1,2.014.786c.2,0,.295,0,.344-.049A30.175,30.175,0,0,0,28.34,23.4l-21.021.049h0a1.515,1.515,0,0,0-.442.049,3.853,3.853,0,0,0-.688.1c-.246.049-.491.147-.737.2a1.927,1.927,0,0,0-.688.393,4.461,4.461,0,0,0-.835.835A3.545,3.545,0,0,0,3.487,26a4.3,4.3,0,0,0-.147,1.179v3.831a5.615,5.615,0,0,1-.147,1.375,2.321,2.321,0,0,1-.491.982,3.853,3.853,0,0,1-.982.688A9.231,9.231,0,0,1,0,34.546v.147a8.229,8.229,0,0,1,1.719.491A3.355,3.355,0,0,1,2.75,35.774Z" transform="translate(48 4.129)"/>
    <path id="Path_3821" data-name="Path 3821" class="cls-1" d="M97.5,39.755a.424.424,0,0,0,.295-.147,41.43,41.43,0,0,0,6.581-6.532,12.253,12.253,0,0,0,1.031-1.719,3.3,3.3,0,0,0,.786-1.965c0-.344,0-.491-.246-.491a1.691,1.691,0,0,0-.884.393c-.491.295-.442.147-.884.54-2.8,2.456-5.8,5.943-6.778,9.725C97.4,39.705,97.449,39.755,97.5,39.755Z" transform="translate(-1.562 1.228)"/>
    <path id="Path_3822" data-name="Path 3822" class="cls-1" d="M34.647,33.7a2.5,2.5,0,0,0-1.081.2,21.731,21.731,0,0,0-10.02,10.9,2.214,2.214,0,0,0-.147.54c0,.393.1.933.295.933a.792.792,0,0,0,.442-.147c.246-.2.54-.2.884-.491A53.682,53.682,0,0,0,34.7,35.566c.54-.639.884-.786.884-1.473C35.63,33.847,35.335,33.7,34.647,33.7Z" transform="translate(36.093 -1.214)"/>
    <path id="Path_3823" data-name="Path 3823" class="cls-1" d="M141.947,23.4h0Z" transform="translate(-24.154 4.027)"/>
    <path id="Path_3824" data-name="Path 3824" class="cls-1" d="M143.474,24.719a4.551,4.551,0,0,1,.835,2.75,5.7,5.7,0,0,1-1.228,3.536c-.344.442-.393.442-.589.442a2.977,2.977,0,0,1-1.523-.54,1.616,1.616,0,0,1-.639-1.375.653.653,0,0,1,.147-.344,3.721,3.721,0,0,0,.737-1.965,2.96,2.96,0,0,0-.295-1.13,1.213,1.213,0,0,0-.933-.589,8.593,8.593,0,0,0-2.6,4.371,5.794,5.794,0,0,0-.1,1.081c0,.246.2,2.161.295,2.7.393,3.193,1.375,7.908,1.375,9.676a1.3,1.3,0,0,1-.344.786,5.165,5.165,0,0,1-2.112,1.473h11.444c-.147-.049-.295-.049-.393-.1a13.355,13.355,0,0,1-6.287-5.648,1.309,1.309,0,0,1-.246-.639,1.685,1.685,0,0,1,1.572-1.572c.884,0,1.228.1,1.621.589.982,1.326,1.523,2.9,2.8,4.077.442.393.639.442.884.442a.4.4,0,0,0,.442-.344,6.908,6.908,0,0,0-.2-1.326c-.589-2.8-1.375-9.135-1.375-9.97a11.517,11.517,0,0,1,1.572-5.157,5.31,5.31,0,0,1,3.831-2.7c2.358,0,3.34.589,4.224,1.523a4.551,4.551,0,0,1,.835,2.75A5.438,5.438,0,0,1,156,31.006c-.344.442-.393.442-.589.442a2.977,2.977,0,0,1-1.523-.54,1.616,1.616,0,0,1-.638-1.375.653.653,0,0,1,.147-.344,3.721,3.721,0,0,0,.737-1.965,2.961,2.961,0,0,0-.295-1.13,1.3,1.3,0,0,0-.933-.589,8.593,8.593,0,0,0-2.6,4.371,5.794,5.794,0,0,0-.1,1.081c0,.246.2,2.161.295,2.7.393,3.193,1.375,7.908,1.375,9.627a.887.887,0,0,1-.344.737,4.523,4.523,0,0,1-2.161,1.424H164.79c.2,0,.393.049.589.049h1.277a10.884,10.884,0,0,0,7.416-3.242.974.974,0,0,0,.295-.639.755.755,0,0,0-.737-.737h-.049a.856.856,0,0,0-.589.295,9.615,9.615,0,0,1-6.336,2.849h-.982a6.949,6.949,0,0,1-6.974-7.367c0-5.894,4.519-11.64,10.412-12.132h0a.836.836,0,0,0,.344-.049h.442a6.776,6.776,0,0,1,6.336,3.487.773.773,0,0,0,.638.344h.147a.782.782,0,0,0,.688-.688,1.6,1.6,0,0,0-.2-.688A8.576,8.576,0,0,0,170,23.049h-.688V23l-29.469.049A5.739,5.739,0,0,1,143.474,24.719Z" transform="translate(-21.457 4.231)"/>
  </g>
</svg>
