<?xml version="1.0" encoding="utf-8"?>
<!-- Generator: Adobe Illustrator 21.1.0, SVG Export Plug-In . SVG Version: 6.00 Build 0)  -->
<svg version="1.1" id="Layer_1" xmlns="http://www.w3.org/2000/svg" xmlns:xlink="http://www.w3.org/1999/xlink" x="0px" y="0px"
	 viewBox="0 0 39.2 33.9" style="enable-background:new 0 0 39.2 33.9;" xml:space="preserve">
<style type="text/css">
	.st0{fill:#74529E;}
</style>
<g id="Group_649" transform="translate(-48 -15.934)">
	<path id="Path_3817" class="st0" d="M84.7,21.3c0.5-0.7,0.6-1.2,1-1.8c0.5-0.6,0.9-1.4,0.9-2.3c0-0.7-1.6-1.4-2.1-1.4
		c-0.4,0-0.8,0.1-1,0.5c-2.8,3.5-4.6,7.4-7.2,11.1h4.2C81.9,25.5,83.5,23.4,84.7,21.3z"/>
	<path id="Path_3820_3_" class="st0" d="M80.7,27.3c-1.2,1.7-2.2,3.6-3,5.6L77,34.8c-2.6,6.9-3.3,9.9-3.3,11.4
		c0,0.8,0.1,1.6,0.3,2.3c0,0.1,0,0.1-0.1,0.3c-0.6,0.6-0.5,0.9-1.6,0.9c-0.4,0-1.5-0.5-1.6-0.8c-0.2-0.9-0.3-1.8-0.2-2.7
		c0.1-2.1,0.4-4.1,1.1-6.1c0.4-1,0.8-2,1.3-2.9c0,0,0-0.1-0.1-0.1s-0.2,0.1-0.4,0.4c-3.4,3.8-6.8,7.9-11,10.3
		c-0.4,0.2-0.8,0.3-1.3,0.3c-1.1-0.2-2.2-0.6-3-1.3c-0.5-0.7-0.7-1.5-0.7-2.4c0.1-1.6,0.7-3.1,1.5-4.4c2.1-3.8,5.2-7,8.9-9.2
		c1-0.5,2-0.8,3.1-0.8c0.4,0,0.8,0.1,1.2,0.2c0.7,0.2,1.4,0.5,2,0.8c0.2,0,0.3,0,0.3,0c1-1.1,2-2.2,2.8-3.4h-21l0,0
		c-0.1,0-0.3,0-0.4,0c-0.2,0-0.5,0-0.7,0.1c-0.2,0-0.5,0.1-0.7,0.2c-0.3,0.1-0.5,0.2-0.7,0.4c-0.3,0.2-0.6,0.5-0.8,0.8
		s-0.3,0.6-0.4,1c-0.1,0.4-0.2,0.8-0.1,1.2v3.8c0,0.5,0,0.9-0.1,1.4c-0.1,0.4-0.3,0.7-0.5,1c-0.3,0.3-0.6,0.5-1,0.7
		c-0.6,0.2-1.1,0.4-1.7,0.5v0.1c0.6,0.1,1.2,0.3,1.7,0.5c0.3,0.1,0.6,0.3,1,0.6c0.2,0.3,0.4,0.6,0.5,1c0.1,0.5,0.2,0.9,0.1,1.4v3.8
		c0,0.4,0,0.8,0.1,1.2c0.1,0.3,0.2,0.7,0.4,1s0.5,0.6,0.8,0.8c0.2,0.2,0.4,0.3,0.7,0.4c0.2,0.1,0.5,0.2,0.7,0.2
		c0.2,0.1,0.5,0.1,0.7,0.1c0.1,0,0.3,0,0.4,0l21.1,0"/>
	<path id="Path_3822" class="st0" d="M70.7,32.5c-0.4,0-0.7,0.1-1.1,0.2c-4.5,2.3-8.1,6.2-10,10.9c-0.1,0.2-0.1,0.4-0.1,0.5
		c0,0.4,0.1,0.9,0.3,0.9s0.3-0.1,0.4-0.1c0.2-0.2,0.5-0.2,0.9-0.5c3.7-2.9,6.9-6.3,9.7-10.1c0.5-0.6,0.9-0.8,0.9-1.5
		C71.7,32.6,71.4,32.5,70.7,32.5z"/>
</g>
</svg>
